<?xml version="1.0" standalone="no"?>
<!DOCTYPE svg PUBLIC "-//W3C//DTD SVG 20010904//EN"
 "http://www.w3.org/TR/2001/REC-SVG-20010904/DTD/svg10.dtd">
<svg version="1.0" xmlns="http://www.w3.org/2000/svg"
 width="300.000000pt" height="300.000000pt" viewBox="0 0 300.000000 300.000000"
 preserveAspectRatio="xMidYMid meet">
<metadata>
Created by potrace 1.14, written by Peter Selinger 2001-2017
</metadata>
<g transform="translate(0.000000,300.000000) scale(0.100000,-0.100000)"
fill="#000000" stroke="none">
<path d="M138 2700 c-22 -22 -28 -38 -29 -72 0 -24 0 -552 -1 -1175 l0 -1132
21 -30 c14 -20 33 -32 54 -35 18 -3 623 -4 1345 -3 l1314 2 24 28 24 28 0
1180 0 1181 -28 28 -28 28 -1334 0 -1334 0 -28 -28z m2589 -1210 c-1 -686 -5
-1040 -12 -1041 -5 -1 -556 -2 -1223 -2 l-1212 -2 -1 30 c-1 42 -1 2005 0
2033 l1 22 1225 0 1225 0 -3 -1040z"/>
<path d="M912 2304 c-54 -16 -96 -45 -149 -102 -34 -37 -82 -115 -88 -142 0
-3 -7 -29 -14 -59 -28 -112 4 -263 75 -356 l33 -44 -35 -28 c-117 -89 -187
-195 -225 -341 -15 -59 -21 -116 -23 -242 -2 -180 3 -216 35 -242 20 -17 58
-18 481 -18 l460 0 29 29 c32 33 31 22 32 271 0 137 -2 150 -31 238 -46 134
-118 237 -217 309 -23 16 -28 25 -20 36 61 85 88 144 100 212 33 193 -61 389
-224 466 -56 26 -157 32 -219 13z m172 -206 c84 -45 129 -184 92 -283 -82
-214 -360 -149 -358 85 1 94 43 168 116 201 43 20 109 19 150 -3z m-3 -643
c56 -16 118 -54 160 -98 88 -92 122 -220 110 -413 -1 -21 -3 -21 -352 -20
l-351 0 5 110 c3 61 7 118 9 126 3 8 8 28 13 44 13 47 56 117 100 162 85 86
198 119 306 89z"/>
<path d="M1727 2107 c-39 -13 -63 -78 -45 -128 19 -56 32 -58 404 -58 210 0
349 4 365 10 56 22 69 105 25 156 l-24 28 -350 0 c-193 0 -362 -3 -375 -8z"/>
<path d="M1719 1622 c-28 -14 -35 -26 -44 -73 -6 -31 23 -89 50 -99 33 -13
694 -12 726 1 56 22 69 105 25 156 l-24 28 -352 0 c-281 1 -358 -2 -381 -13z"/>
<path d="M1718 1139 c-58 -33 -56 -138 3 -169 14 -8 134 -12 371 -11 301 0
353 2 373 15 47 31 49 121 4 159 -19 15 -53 17 -378 17 -221 0 -363 -4 -373
-11z"/>
</g>
</svg>
